<svg height='300px' width='300px'  fill="#000000" xmlns="http://www.w3.org/2000/svg" xmlns:xlink="http://www.w3.org/1999/xlink" version="1.1" x="0px" y="0px" viewBox="0 0 512 512" style="enable-background:new 0 0 512 512;" xml:space="preserve"><g><g><g><path d="M258.9,453.8h-13.9c-2.2,0-4-1.8-4-4s1.8-4,4-4h10.4l7.5-50c0.3-1.7,1.6-3.1,3.3-3.4c9.6-1.5,19.1-4.1,28.3-7.6     c1.6-0.6,3.5-0.1,4.6,1.2l31.5,39.6l18.1-10.4l-18.5-47.1c-0.6-1.6-0.2-3.5,1.2-4.6c7.6-6.2,14.5-13.1,20.7-20.7     c1.1-1.4,3-1.8,4.6-1.2l47.1,18.5l10.4-18.1l-39.5-31.5c-1.4-1.1-1.9-2.9-1.2-4.6c3.5-9.1,6.1-18.6,7.6-28.3     c0.3-1.7,1.6-3.1,3.4-3.3l50-7.5V246l-50-7.5c-1.7-0.3-3.1-1.6-3.4-3.3c-1.5-9.8-4.1-19.3-7.6-28.3c-0.6-1.6-0.1-3.5,1.2-4.6     l39.5-31.5l-10.4-18.1l-47.1,18.5c-1.6,0.6-3.5,0.1-4.6-1.2c-6.2-7.6-13.1-14.6-20.7-20.7c-1.4-1.1-1.8-2.9-1.2-4.6l18.5-47.1     l-18.1-10.4l-31.5,39.6c-1.1,1.4-2.9,1.9-4.6,1.2c-9.1-3.5-18.6-6.1-28.3-7.6c-1.7-0.3-3.1-1.6-3.3-3.4l-7.5-50h-10.4     c-2.2,0-4-1.8-4-4s1.8-4,4-4h13.9c2,0,3.7,1.4,4,3.4l7.6,50.6c8.2,1.5,16.4,3.6,24.2,6.5l31.8-40c1.2-1.6,3.4-2,5.1-1l24,13.9     c1.7,1,2.4,3.1,1.7,4.9L338.7,145c6.4,5.4,12.3,11.3,17.7,17.7l47.6-18.7c1.8-0.7,3.9,0,4.9,1.7l13.9,24c1,1.7,0.6,3.9-1,5.1     l-40,31.9c2.8,7.8,5,15.9,6.5,24.3l50.6,7.6c2,0.3,3.4,2,3.4,4v27.8c0,2-1.4,3.7-3.4,4l-50.6,7.6c-1.5,8.2-3.6,16.4-6.5,24.3     l40,31.9c1.5,1.2,2,3.4,1,5.1l-13.9,24c-1,1.7-3.1,2.5-4.9,1.7l-47.6-18.7c-5.4,6.4-11.3,12.3-17.7,17.7l18.7,47.6     c0.7,1.8,0,3.9-1.7,4.9l-24,13.8c-1.7,1-3.9,0.6-5.1-1l-31.8-40c-7.9,2.9-16,5-24.2,6.5l-7.6,50.6     C262.6,452.4,260.9,453.8,258.9,453.8z"></path></g><g><path d="M245.1,500.1c-2.2,0-4-1.8-4-4V16.8c0-2.2,1.8-4,4-4s4,1.8,4,4v479.3C249.1,498.3,247.3,500.1,245.1,500.1z"></path></g><g><path d="M245.1,206.3h-42.4c-1.1,0-2.1-0.4-2.8-1.2l-48.6-48.6H93.3c-2.2,0-4-1.8-4-4s1.8-4,4-4h59.6c1.1,0,2.1,0.4,2.8,1.2     l48.6,48.6h40.7c2.2,0,4,1.8,4,4S247.3,206.3,245.1,206.3z"></path></g><g><path d="M245.1,235.4h-49.6c-1.1,0-2.1-0.4-2.8-1.2l-49.1-49.1H134c-2.2,0-4-1.8-4-4s1.8-4,4-4h11.3c1.1,0,2.1,0.4,2.8,1.2     l49.1,49.1h47.9c2.2,0,4,1.8,4,4S247.3,235.4,245.1,235.4z"></path></g><g><path d="M136.5,217.9h-26.1c-2.2,0-4-1.8-4-4s1.8-4,4-4h24.4l19.6-19.6c1.6-1.6,4.1-1.6,5.7,0c1.6,1.6,1.6,4.1,0,5.7l-20.7,20.7     C138.6,217.5,137.6,217.9,136.5,217.9z"></path></g><g><path d="M245.1,260.1H97.3c-2.2,0-4-1.8-4-4s1.8-4,4-4h147.8c2.2,0,4,1.8,4,4C249.1,258.3,247.3,260.1,245.1,260.1z"></path></g><g><path d="M178.8,260.5c-1,0-2-0.4-2.8-1.2l-20-20h-40.2c-2.2,0-4-1.8-4-4s1.8-4,4-4h41.9c1.1,0,2.1,0.4,2.8,1.2l21.1,21.1     c1.6,1.6,1.6,4.1,0,5.7C180.8,260.1,179.8,260.5,178.8,260.5z"></path></g><g><path d="M83.9,165.9c-7.4,0-13.4-6-13.4-13.4c0-7.4,6-13.4,13.4-13.4c7.4,0,13.4,6,13.4,13.4C97.3,159.9,91.3,165.9,83.9,165.9z      M83.9,147.1c-3,0-5.4,2.4-5.4,5.4c0,3,2.4,5.4,5.4,5.4c3,0,5.4-2.4,5.4-5.4C89.3,149.5,86.9,147.1,83.9,147.1z"></path></g><g><path d="M124.6,194.6c-7.4,0-13.4-6-13.4-13.4c0-7.4,6-13.4,13.4-13.4c7.4,0,13.4,6,13.4,13.4C138,188.6,132,194.6,124.6,194.6z      M124.6,175.8c-3,0-5.4,2.4-5.4,5.4c0,3,2.4,5.4,5.4,5.4c3,0,5.4-2.4,5.4-5.4C130,178.2,127.6,175.8,124.6,175.8z"></path></g><g><path d="M101.1,227.3c-7.4,0-13.4-6-13.4-13.4c0-7.4,6-13.4,13.4-13.4c7.4,0,13.4,6,13.4,13.4     C114.5,221.3,108.5,227.3,101.1,227.3z M101.1,208.5c-3,0-5.4,2.4-5.4,5.4c0,3,2.4,5.4,5.4,5.4c3,0,5.4-2.4,5.4-5.4     C106.5,210.9,104,208.5,101.1,208.5z"></path></g><g><path d="M87.9,269.5c-7.4,0-13.4-6-13.4-13.4c0-7.4,6-13.4,13.4-13.4c7.4,0,13.4,6,13.4,13.4C101.3,263.5,95.3,269.5,87.9,269.5z      M87.9,250.7c-3,0-5.4,2.4-5.4,5.4c0,3,2.4,5.4,5.4,5.4c3,0,5.4-2.4,5.4-5.4C93.3,253.2,90.9,250.7,87.9,250.7z"></path></g><g><path d="M210.3,165.9c-7.4,0-13.4-6-13.4-13.4c0-7.4,6-13.4,13.4-13.4c7.4,0,13.4,6,13.4,13.4     C223.6,159.9,217.6,165.9,210.3,165.9z M210.3,147.1c-3,0-5.4,2.4-5.4,5.4c0,3,2.4,5.4,5.4,5.4c3,0,5.4-2.4,5.4-5.4     C215.6,149.5,213.2,147.1,210.3,147.1z"></path></g><g><path d="M182.4,186c-1.2,0-2.4-0.5-3.1-1.5c-1.3-1.7-1.1-4.1,0.5-5.5c1.4-1.4,13.4-14.6,20.7-22.8c1.5-1.6,4-1.8,5.6-0.3     c1.6,1.5,1.8,4,0.3,5.6c-20.3,22.6-21.2,23.3-21.6,23.6C184.1,185.7,183.3,186,182.4,186z"></path></g><g><path d="M152.9,364.5H93.3c-2.2,0-4-1.8-4-4s1.8-4,4-4h57.9l48.6-48.6c0.8-0.8,1.8-1.2,2.8-1.2h42.4c2.2,0,4,1.8,4,4s-1.8,4-4,4     h-40.7l-48.6,48.6C154.9,364,153.9,364.5,152.9,364.5z"></path></g><g><path d="M145.3,335.8H134c-2.2,0-4-1.8-4-4s1.8-4,4-4h9.7l49.1-49.1c0.8-0.8,1.8-1.2,2.8-1.2h49.6c2.2,0,4,1.8,4,4s-1.8,4-4,4     h-47.9l-49.1,49.1C147.4,335.3,146.4,335.8,145.3,335.8z"></path></g><g><path d="M157.3,323.9c-1,0-2.1-0.4-2.8-1.2l-19.6-19.6h-24.4c-2.2,0-4-1.8-4-4s1.8-4,4-4h26.1c1.1,0,2.1,0.4,2.8,1.2l20.7,20.8     c1.6,1.6,1.6,4.1,0,5.7C159.3,323.5,158.3,323.9,157.3,323.9z"></path></g><g><path d="M157.7,281.6h-41.9c-2.2,0-4-1.8-4-4s1.8-4,4-4H156l20-20c1.6-1.6,4.1-1.6,5.7,0c1.6,1.6,1.6,4.1,0,5.7l-21.1,21.1     C159.7,281.1,158.7,281.6,157.7,281.6z"></path></g><g><path d="M83.9,373.8c-7.4,0-13.4-6-13.4-13.4c0-7.3,6-13.3,13.4-13.3c7.4,0,13.4,6,13.4,13.3C97.3,367.8,91.3,373.8,83.9,373.8z      M83.9,355.1c-3,0-5.4,2.4-5.4,5.3c0,3,2.4,5.4,5.4,5.4c3,0,5.4-2.4,5.4-5.4C89.3,357.5,86.9,355.1,83.9,355.1z"></path></g><g><path d="M124.6,345.1c-7.4,0-13.4-6-13.4-13.4c0-7.3,6-13.3,13.4-13.3c7.4,0,13.4,6,13.4,13.3C138,339.1,132,345.1,124.6,345.1z      M124.6,326.4c-3,0-5.4,2.4-5.4,5.3c0,3,2.4,5.4,5.4,5.4c3,0,5.4-2.4,5.4-5.4C130,328.8,127.6,326.4,124.6,326.4z"></path></g><g><path d="M101.1,312.5c-7.4,0-13.4-6-13.4-13.4c0-7.4,6-13.4,13.4-13.4c7.4,0,13.4,6,13.4,13.4     C114.5,306.5,108.5,312.5,101.1,312.5z M101.1,293.7c-3,0-5.4,2.4-5.4,5.4c0,3,2.4,5.4,5.4,5.4c3,0,5.4-2.4,5.4-5.4     C106.5,296.1,104,293.7,101.1,293.7z"></path></g><g><path d="M210.3,373.8c-7.4,0-13.4-6-13.4-13.4c0-7.3,6-13.3,13.4-13.3c7.4,0,13.4,6,13.4,13.3     C223.6,367.8,217.6,373.8,210.3,373.8z M210.3,355.1c-3,0-5.4,2.4-5.4,5.3c0,3,2.4,5.4,5.4,5.4c3,0,5.4-2.4,5.4-5.4     C215.6,357.5,213.2,355.1,210.3,355.1z"></path></g><g><path d="M203.8,357.7c-1.1,0-2.1-0.4-2.9-1.3c-7.5-8-19.8-21.1-21.1-22.4c-1.6-1.4-1.9-3.8-0.6-5.5c1.4-1.7,3.9-2,5.6-0.7     c0.8,0.7,8.2,8.4,21.9,23.1c1.5,1.6,1.4,4.1-0.2,5.7C205.8,357.3,204.8,357.7,203.8,357.7z"></path></g><g><path d="M246.8,351.8c-2.2,0-4-1.8-4-4s1.8-4,4-4c48.1,0,87.3-39.2,87.3-87.3s-39.1-87.3-87.3-87.3c-2.2,0-4-1.8-4-4s1.8-4,4-4     c52.5,0,95.3,42.8,95.3,95.3S299.3,351.8,246.8,351.8z"></path></g></g></g></svg>